<svg width="43" height="42" viewBox="0 0 43 42" fill="none" xmlns="http://www.w3.org/2000/svg">
<path fill-rule="evenodd" clip-rule="evenodd" d="M3.72828 0H39.6919C41.3533 0 42.7215 1.27045 42.8192 2.93182V38.1136C42.8192 39.775 41.451 41.0455 39.7896 41.0455H3.72828C2.06691 41.0455 0.69873 39.775 0.69873 38.1136V2.93182C0.69873 1.27045 2.06691 0 3.72828 0ZM36.076 20.6205L36.2715 17.9818L36.6624 13.8773H31.2874V11.2386C31.2874 9.96818 32.1669 9.675 32.7533 9.675H36.5646V4.00682H31.2874C25.5215 4.00682 24.1533 8.20909 24.1533 10.9455V13.975H20.8305V20.6205H24.251V37.1364H30.9942V20.6205H36.076Z" fill="#C5C4C4"/>
</svg>
