<svg width="43" height="42" viewBox="0 0 43 42" fill="none" xmlns="http://www.w3.org/2000/svg">
<path fill-rule="evenodd" clip-rule="evenodd" d="M30.1829 11.9V15.9H26.1761V11.9H30.1829ZM25.2965 21C25.2965 23.3 23.4397 25.2 21.0943 25.2C18.7488 25.2 16.892 23.4 16.6965 21C16.6965 20.3 16.892 19.6 17.2829 19C17.3318 18.95 17.3806 18.875 17.4295 18.8C17.4784 18.725 17.5272 18.65 17.5761 18.6C18.3579 17.6 19.6284 16.9 20.9965 16.9C22.3647 16.9 23.6352 17.5 24.417 18.6C24.4659 18.65 24.5147 18.725 24.5636 18.8C24.6124 18.875 24.6613 18.95 24.7102 19C25.1011 19.6 25.2965 20.3 25.2965 21Z" fill="#C5C4C4"/>
<path d="M27.3489 19.3C27.5444 19.9 27.6421 20.5 27.6421 21.1C27.6421 24.7 24.7103 27.6 21.0944 27.6C17.4785 27.6 14.5466 24.7 14.5466 21.1C14.5466 20.5 14.6444 19.9 14.8398 19.3C14.9375 19.1 14.9375 18.8 15.0353 18.6H11.5171V28.3C11.5171 29.6 12.4944 30.6 13.7648 30.6H28.4239C29.6944 30.6 30.6716 29.6 30.6716 28.3V18.6H27.1535C27.1535 18.8 27.2512 19 27.3489 19.3Z" fill="#C5C4C4"/>
<path fill-rule="evenodd" clip-rule="evenodd" d="M3.21021 0H39.1738C40.8352 0 42.2034 1.3 42.3011 3V39C42.3011 40.7 40.9329 42 39.2716 42H3.21021C1.54885 42 0.180664 40.7 0.180664 39V3C0.180664 1.3 1.54885 0 3.21021 0ZM33.017 28.4V18.6V13.7C33.017 11.2 30.9648 9.1 28.4238 9.1H13.7648C11.2238 9.1 9.17157 11.2 9.17157 13.7V28.4C9.17157 30.9 11.2238 33 13.7648 33H28.4238C30.9648 33 33.017 30.9 33.017 28.4Z" fill="#C5C4C4"/>
</svg>
