<svg width="43" height="42" viewBox="0 0 43 42" fill="none" xmlns="http://www.w3.org/2000/svg">
<g id="footer_linkedin">
<path id="Shape" fill-rule="evenodd" clip-rule="evenodd" d="M3.0896 0H39.0532C40.7146 0 42.0828 1.3 42.1805 3V39C42.1805 40.7 40.8123 42 39.151 42H3.0896C1.42824 42 0.0600586 40.7 0.0600586 39V3C0.0600586 1.3 1.42824 0 3.0896 0ZM14.5237 33.3V20.3H14.426V17H14.3282V16.9H8.95324V17H8.75779V33.3H14.5237ZM11.6896 14.4C10.126 14.4 8.85551 13.1 8.85551 11.5C8.85551 9.9 10.126 8.6 11.6896 8.6C13.2532 8.6 14.5237 9.9 14.5237 11.5C14.5237 13.2 13.2532 14.4 11.6896 14.4ZM33.2873 33H33.4828V24H33.1896C33.1896 23.4 33.1896 22.5 33.0919 21.8C32.8964 19.7 32.1146 18.3 30.4532 17.5C29.5737 17.1 28.4987 16.9 27.1305 16.9C24.6873 16.9 23.026 17.8 22.3419 19.1H22.2442V16.9H22.1464V16.8H17.9441V16.9H17.7487V33.3H22.5373V33H22.8305V25.1C22.8305 23 23.026 20.9 25.6646 20.9C26.0555 20.9 26.3487 21 26.6419 21.1C28.2055 21.7 28.2055 23.7 28.2055 25.3V33H28.401V33.3H33.2873V33Z" fill="#C5C4C4"/>
</g>
</svg>
