<svg width="44" height="42" viewBox="0 0 44 42" fill="none" xmlns="http://www.w3.org/2000/svg">
<g id="footer_twitter">
<path id="Shape" fill-rule="evenodd" clip-rule="evenodd" d="M3.96924 0H39.9329C41.5942 0 42.9624 1.3 43.0602 3V39C43.0602 40.7 41.692 42 40.0306 42H3.96924C2.30788 42 0.939697 40.7 0.939697 39V3C0.939697 1.3 2.30788 0 3.96924 0ZM32.7988 16.4V15.7C33.8738 15 34.8511 14 35.7306 12.5C34.7533 13 33.6783 13.3 32.5056 13.4C33.6783 12.8 34.5579 11.7 34.9488 10.4C33.8738 11 32.7011 11.5 31.4306 11.7C30.3556 10.7 28.8897 10 27.3261 10C24.2965 10 21.7556 12.5 21.7556 15.5C21.7556 16 21.7556 16.4 21.8533 16.8C17.1624 16.6 13.0579 14.4 10.3215 11.1C9.83288 11.9 9.5397 12.9 9.5397 13.9C9.5397 15.8 10.517 17.5 11.9829 18.5C11.1033 18.5 10.2238 18.2 9.44197 17.8V17.9C9.44197 18.6 9.5397 19.3 9.83288 19.9C10.517 21.6 12.0806 22.9 13.9374 23.3C13.4488 23.4 12.9602 23.5 12.4715 23.5C12.0806 23.5 11.7874 23.5 11.3965 23.4C12.0806 25.6 14.1329 27.2 16.5761 27.2C14.6215 28.7 12.2761 29.6 9.63742 29.6C9.14879 29.6 8.66015 29.6 8.26924 29.5C10.8102 31.1 13.742 32 16.8692 32C25.6647 32 31.0397 26 32.4079 19.7C32.7011 18.6 32.7988 17.5 32.7988 16.4Z" fill="#C5C4C4"/>
</g>
</svg>
