<svg width="43" height="42" viewBox="0 0 43 42" fill="none" xmlns="http://www.w3.org/2000/svg">
<g id="footer_yt">
<path id="Shape" fill-rule="evenodd" clip-rule="evenodd" d="M3.84864 0H39.8123C41.4736 0 42.8418 1.3 42.9395 3V39C42.9395 40.7 41.5714 42 39.91 42H3.84864C2.18727 42 0.819092 40.7 0.819092 39V3C0.819092 1.3 2.18727 0 3.84864 0ZM36.0986 22.2V20.4V20C36.0986 17.6 35.8055 15.2 35.8055 15.2C35.8055 15.2 35.5123 13.1 34.6327 12.2C33.6949 11.1531 32.6826 11.0195 32.0503 10.9361C31.9578 10.9239 31.8734 10.9128 31.7986 10.9C27.7918 10.6 21.8305 10.6 21.8305 10.6C21.8305 10.6 15.8691 10.6 11.8623 10.9C11.7907 10.9146 11.7024 10.9271 11.6004 10.9416C11.0057 11.0257 9.94575 11.1757 9.02818 12.2C8.14864 13.1 7.85546 15.2 7.85546 15.2C7.85546 15.2 7.56227 17.6 7.56227 20V22.2C7.56227 24.6 7.85546 27 7.85546 27C7.85546 27 8.14864 29.1 9.02818 30C9.9507 31.0298 11.1611 31.1759 11.8565 31.2598C11.9714 31.2736 12.0723 31.2858 12.1555 31.3C14.4032 31.5 21.8305 31.6 21.8305 31.6C21.8305 31.6 27.7918 31.6 31.7986 31.3C31.8702 31.2854 31.9585 31.2729 32.0606 31.2584C32.6552 31.1743 33.7152 31.0243 34.6327 30C35.5123 29 35.8055 27 35.8055 27C35.8055 27 36.0986 24.6 36.0986 22.2Z" fill="#C5C4C4"/>
<path id="Shape_2" d="M18.8987 16.6V25L26.6191 20.8L22.3191 18.5L18.8987 16.6Z" fill="#C5C4C4"/>
</g>
</svg>
